<mxfile host="app.diagrams.net" modified="2023-02-09T20:34:56.180Z" agent="5.0 (Windows NT 10.0; Win64; x64) AppleWebKit/537.36 (KHTML, like Gecko) Chrome/109.0.0.0 Safari/537.36" etag="FDdMyUYmEdMmlEILFFCl" version="20.8.18" type="github">
  <diagram id="R2lEEEUBdFMjLlhIrx00" name="Page-1">
    <mxGraphModel dx="1195" dy="645" grid="0" gridSize="10" guides="1" tooltips="1" connect="1" arrows="1" fold="1" page="1" pageScale="1" pageWidth="850" pageHeight="1100" math="0" shadow="0" extFonts="Permanent Marker^https://fonts.googleapis.com/css?family=Permanent+Marker">
      <root>
        <mxCell id="0" />
        <mxCell id="1" parent="0" />
        <mxCell id="wmS9b-h6bvYxc8GF7XZs-1" value="developer_infos" style="shape=table;startSize=30;container=1;collapsible=1;childLayout=tableLayout;fixedRows=1;rowLines=0;fontStyle=1;align=center;resizeLast=1;labelBackgroundColor=none;swimlaneFillColor=none;rounded=1;swimlaneLine=1;shadow=0;fillColor=#BC6C25;fontColor=#FEFAE0;strokeColor=#DDA15E;" parent="1" vertex="1">
          <mxGeometry x="542.5" y="53" width="231.75" height="130" as="geometry">
            <mxRectangle x="273" y="180" width="76" height="30" as="alternateBounds" />
          </mxGeometry>
        </mxCell>
        <mxCell id="wmS9b-h6bvYxc8GF7XZs-2" value="" style="shape=partialRectangle;collapsible=0;dropTarget=0;pointerEvents=0;fillColor=none;points=[[0,0.5],[1,0.5]];portConstraint=eastwest;top=0;left=0;right=0;bottom=1;labelBackgroundColor=none;strokeColor=#DDA15E;fontColor=#FEFAE0;" parent="wmS9b-h6bvYxc8GF7XZs-1" vertex="1">
          <mxGeometry y="30" width="231.75" height="30" as="geometry" />
        </mxCell>
        <mxCell id="wmS9b-h6bvYxc8GF7XZs-3" value="PK" style="shape=partialRectangle;overflow=hidden;connectable=0;fillColor=none;top=0;left=0;bottom=0;right=0;fontStyle=1;labelBackgroundColor=none;strokeColor=#DDA15E;fontColor=#FEFAE0;" parent="wmS9b-h6bvYxc8GF7XZs-2" vertex="1">
          <mxGeometry width="30" height="30" as="geometry">
            <mxRectangle width="30" height="30" as="alternateBounds" />
          </mxGeometry>
        </mxCell>
        <mxCell id="wmS9b-h6bvYxc8GF7XZs-4" value="id:  INTEGER SERIAL" style="shape=partialRectangle;overflow=hidden;connectable=0;fillColor=none;top=0;left=0;bottom=0;right=0;align=left;spacingLeft=6;fontStyle=5;labelBackgroundColor=none;strokeColor=#DDA15E;fontColor=#FEFAE0;" parent="wmS9b-h6bvYxc8GF7XZs-2" vertex="1">
          <mxGeometry x="30" width="201.75" height="30" as="geometry">
            <mxRectangle width="201.75" height="30" as="alternateBounds" />
          </mxGeometry>
        </mxCell>
        <mxCell id="wmS9b-h6bvYxc8GF7XZs-5" value="" style="shape=partialRectangle;collapsible=0;dropTarget=0;pointerEvents=0;fillColor=none;points=[[0,0.5],[1,0.5]];portConstraint=eastwest;top=0;left=0;right=0;bottom=0;labelBackgroundColor=none;strokeColor=#DDA15E;fontColor=#FEFAE0;" parent="wmS9b-h6bvYxc8GF7XZs-1" vertex="1">
          <mxGeometry y="60" width="231.75" height="30" as="geometry" />
        </mxCell>
        <mxCell id="wmS9b-h6bvYxc8GF7XZs-6" value="" style="shape=partialRectangle;overflow=hidden;connectable=0;fillColor=none;top=0;left=0;bottom=0;right=0;labelBackgroundColor=none;strokeColor=#DDA15E;fontColor=#FEFAE0;" parent="wmS9b-h6bvYxc8GF7XZs-5" vertex="1">
          <mxGeometry width="30" height="30" as="geometry">
            <mxRectangle width="30" height="30" as="alternateBounds" />
          </mxGeometry>
        </mxCell>
        <mxCell id="wmS9b-h6bvYxc8GF7XZs-7" value="developerSince: DATE NOT NULL" style="shape=partialRectangle;overflow=hidden;connectable=0;fillColor=none;top=0;left=0;bottom=0;right=0;align=left;spacingLeft=6;labelBackgroundColor=none;strokeColor=#DDA15E;fontColor=#FEFAE0;" parent="wmS9b-h6bvYxc8GF7XZs-5" vertex="1">
          <mxGeometry x="30" width="201.75" height="30" as="geometry">
            <mxRectangle width="201.75" height="30" as="alternateBounds" />
          </mxGeometry>
        </mxCell>
        <mxCell id="wmS9b-h6bvYxc8GF7XZs-8" value="" style="shape=partialRectangle;collapsible=0;dropTarget=0;pointerEvents=0;fillColor=none;points=[[0,0.5],[1,0.5]];portConstraint=eastwest;top=0;left=0;right=0;bottom=0;labelBackgroundColor=none;strokeColor=#DDA15E;fontColor=#FEFAE0;" parent="wmS9b-h6bvYxc8GF7XZs-1" vertex="1">
          <mxGeometry y="90" width="231.75" height="30" as="geometry" />
        </mxCell>
        <mxCell id="wmS9b-h6bvYxc8GF7XZs-9" value="" style="shape=partialRectangle;overflow=hidden;connectable=0;fillColor=none;top=0;left=0;bottom=0;right=0;labelBackgroundColor=none;strokeColor=#DDA15E;fontColor=#FEFAE0;" parent="wmS9b-h6bvYxc8GF7XZs-8" vertex="1">
          <mxGeometry width="30" height="30" as="geometry">
            <mxRectangle width="30" height="30" as="alternateBounds" />
          </mxGeometry>
        </mxCell>
        <mxCell id="wmS9b-h6bvYxc8GF7XZs-10" value="preferredOS:      OS     NOT NULL" style="shape=partialRectangle;overflow=hidden;connectable=0;fillColor=none;top=0;left=0;bottom=0;right=0;align=left;spacingLeft=6;labelBackgroundColor=none;strokeColor=#DDA15E;fontColor=#FEFAE0;" parent="wmS9b-h6bvYxc8GF7XZs-8" vertex="1">
          <mxGeometry x="30" width="201.75" height="30" as="geometry">
            <mxRectangle width="201.75" height="30" as="alternateBounds" />
          </mxGeometry>
        </mxCell>
        <mxCell id="wmS9b-h6bvYxc8GF7XZs-17" value="developers" style="shape=table;startSize=30;container=1;collapsible=1;childLayout=tableLayout;fixedRows=1;rowLines=0;fontStyle=1;align=center;resizeLast=1;labelBackgroundColor=none;swimlaneFillColor=none;rounded=1;swimlaneLine=1;shadow=0;fillColor=#BC6C25;fontColor=#FEFAE0;strokeColor=#DDA15E;" parent="1" vertex="1">
          <mxGeometry x="79" y="53" width="278" height="225.75" as="geometry">
            <mxRectangle x="273" y="180" width="76" height="30" as="alternateBounds" />
          </mxGeometry>
        </mxCell>
        <mxCell id="wmS9b-h6bvYxc8GF7XZs-18" value="" style="shape=partialRectangle;collapsible=0;dropTarget=0;pointerEvents=0;fillColor=none;points=[[0,0.5],[1,0.5]];portConstraint=eastwest;top=0;left=0;right=0;bottom=1;labelBackgroundColor=none;strokeColor=#DDA15E;fontColor=#FEFAE0;" parent="wmS9b-h6bvYxc8GF7XZs-17" vertex="1">
          <mxGeometry y="30" width="278" height="30" as="geometry" />
        </mxCell>
        <mxCell id="wmS9b-h6bvYxc8GF7XZs-19" value="PK" style="shape=partialRectangle;overflow=hidden;connectable=0;fillColor=none;top=0;left=0;bottom=0;right=0;fontStyle=1;labelBackgroundColor=none;strokeColor=#DDA15E;fontColor=#FEFAE0;" parent="wmS9b-h6bvYxc8GF7XZs-18" vertex="1">
          <mxGeometry width="30" height="30" as="geometry">
            <mxRectangle width="30" height="30" as="alternateBounds" />
          </mxGeometry>
        </mxCell>
        <mxCell id="wmS9b-h6bvYxc8GF7XZs-20" value="id:  INTEGER SERIAL" style="shape=partialRectangle;overflow=hidden;connectable=0;fillColor=none;top=0;left=0;bottom=0;right=0;align=left;spacingLeft=6;fontStyle=5;labelBackgroundColor=none;strokeColor=#DDA15E;fontColor=#FEFAE0;" parent="wmS9b-h6bvYxc8GF7XZs-18" vertex="1">
          <mxGeometry x="30" width="248" height="30" as="geometry">
            <mxRectangle width="248" height="30" as="alternateBounds" />
          </mxGeometry>
        </mxCell>
        <mxCell id="wmS9b-h6bvYxc8GF7XZs-21" value="" style="shape=partialRectangle;collapsible=0;dropTarget=0;pointerEvents=0;fillColor=none;points=[[0,0.5],[1,0.5]];portConstraint=eastwest;top=0;left=0;right=0;bottom=0;labelBackgroundColor=none;strokeColor=#DDA15E;fontColor=#FEFAE0;" parent="wmS9b-h6bvYxc8GF7XZs-17" vertex="1">
          <mxGeometry y="60" width="278" height="30" as="geometry" />
        </mxCell>
        <mxCell id="wmS9b-h6bvYxc8GF7XZs-22" value="" style="shape=partialRectangle;overflow=hidden;connectable=0;fillColor=none;top=0;left=0;bottom=0;right=0;labelBackgroundColor=none;strokeColor=#DDA15E;fontColor=#FEFAE0;" parent="wmS9b-h6bvYxc8GF7XZs-21" vertex="1">
          <mxGeometry width="30" height="30" as="geometry">
            <mxRectangle width="30" height="30" as="alternateBounds" />
          </mxGeometry>
        </mxCell>
        <mxCell id="wmS9b-h6bvYxc8GF7XZs-23" value="name: VARCHAR(50) NOT NULL" style="shape=partialRectangle;overflow=hidden;connectable=0;fillColor=none;top=0;left=0;bottom=0;right=0;align=left;spacingLeft=6;labelBackgroundColor=none;strokeColor=#DDA15E;fontColor=#FEFAE0;" parent="wmS9b-h6bvYxc8GF7XZs-21" vertex="1">
          <mxGeometry x="30" width="248" height="30" as="geometry">
            <mxRectangle width="248" height="30" as="alternateBounds" />
          </mxGeometry>
        </mxCell>
        <mxCell id="wmS9b-h6bvYxc8GF7XZs-24" value="" style="shape=partialRectangle;collapsible=0;dropTarget=0;pointerEvents=0;fillColor=none;points=[[0,0.5],[1,0.5]];portConstraint=eastwest;top=0;left=0;right=0;bottom=0;labelBackgroundColor=none;strokeColor=#DDA15E;fontColor=#FEFAE0;" parent="wmS9b-h6bvYxc8GF7XZs-17" vertex="1">
          <mxGeometry y="90" width="278" height="30" as="geometry" />
        </mxCell>
        <mxCell id="wmS9b-h6bvYxc8GF7XZs-25" value="" style="shape=partialRectangle;overflow=hidden;connectable=0;fillColor=none;top=0;left=0;bottom=0;right=0;labelBackgroundColor=none;strokeColor=#DDA15E;fontColor=#FEFAE0;" parent="wmS9b-h6bvYxc8GF7XZs-24" vertex="1">
          <mxGeometry width="30" height="30" as="geometry">
            <mxRectangle width="30" height="30" as="alternateBounds" />
          </mxGeometry>
        </mxCell>
        <mxCell id="wmS9b-h6bvYxc8GF7XZs-26" value="email:  VARCHAR(50) NOT NULL UNIQUE" style="shape=partialRectangle;overflow=hidden;connectable=0;fillColor=none;top=0;left=0;bottom=0;right=0;align=left;spacingLeft=6;labelBackgroundColor=none;strokeColor=#DDA15E;fontColor=#FEFAE0;" parent="wmS9b-h6bvYxc8GF7XZs-24" vertex="1">
          <mxGeometry x="30" width="248" height="30" as="geometry">
            <mxRectangle width="248" height="30" as="alternateBounds" />
          </mxGeometry>
        </mxCell>
        <mxCell id="mEpFumHrSj_Q6xWU2nd9-19" value="" style="shape=partialRectangle;collapsible=0;dropTarget=0;pointerEvents=0;fillColor=none;points=[[0,0.5],[1,0.5]];portConstraint=eastwest;top=0;left=0;right=0;bottom=0;labelBackgroundColor=none;strokeColor=#DDA15E;fontColor=#FEFAE0;" vertex="1" parent="wmS9b-h6bvYxc8GF7XZs-17">
          <mxGeometry y="120" width="278" height="33" as="geometry" />
        </mxCell>
        <mxCell id="mEpFumHrSj_Q6xWU2nd9-20" value="FK" style="shape=partialRectangle;overflow=hidden;connectable=0;fillColor=none;top=0;left=0;bottom=0;right=0;labelBackgroundColor=none;strokeColor=#DDA15E;fontColor=#FEFAE0;" vertex="1" parent="mEpFumHrSj_Q6xWU2nd9-19">
          <mxGeometry width="30" height="33" as="geometry">
            <mxRectangle width="30" height="33" as="alternateBounds" />
          </mxGeometry>
        </mxCell>
        <mxCell id="mEpFumHrSj_Q6xWU2nd9-21" value="developerInfoId: INTEGER UNIQUE" style="shape=partialRectangle;overflow=hidden;connectable=0;fillColor=none;top=0;left=0;bottom=0;right=0;align=left;spacingLeft=6;labelBackgroundColor=none;strokeColor=#DDA15E;fontColor=#FEFAE0;" vertex="1" parent="mEpFumHrSj_Q6xWU2nd9-19">
          <mxGeometry x="30" width="248" height="33" as="geometry">
            <mxRectangle width="248" height="33" as="alternateBounds" />
          </mxGeometry>
        </mxCell>
        <mxCell id="mEpFumHrSj_Q6xWU2nd9-3" value="" style="shape=partialRectangle;collapsible=0;dropTarget=0;pointerEvents=0;fillColor=none;points=[[0,0.5],[1,0.5]];portConstraint=eastwest;top=0;left=0;right=0;bottom=0;labelBackgroundColor=none;strokeColor=#DDA15E;fontColor=#FEFAE0;" vertex="1" parent="wmS9b-h6bvYxc8GF7XZs-17">
          <mxGeometry y="153" width="278" height="33" as="geometry" />
        </mxCell>
        <mxCell id="mEpFumHrSj_Q6xWU2nd9-4" value="FK" style="shape=partialRectangle;overflow=hidden;connectable=0;fillColor=none;top=0;left=0;bottom=0;right=0;labelBackgroundColor=none;strokeColor=#DDA15E;fontColor=#FEFAE0;" vertex="1" parent="mEpFumHrSj_Q6xWU2nd9-3">
          <mxGeometry width="30" height="33" as="geometry">
            <mxRectangle width="30" height="33" as="alternateBounds" />
          </mxGeometry>
        </mxCell>
        <mxCell id="mEpFumHrSj_Q6xWU2nd9-5" value="developerInfoId: INTEGER UNIQUE" style="shape=partialRectangle;overflow=hidden;connectable=0;fillColor=none;top=0;left=0;bottom=0;right=0;align=left;spacingLeft=6;labelBackgroundColor=none;strokeColor=#DDA15E;fontColor=#FEFAE0;" vertex="1" parent="mEpFumHrSj_Q6xWU2nd9-3">
          <mxGeometry x="30" width="248" height="33" as="geometry">
            <mxRectangle width="248" height="33" as="alternateBounds" />
          </mxGeometry>
        </mxCell>
        <mxCell id="mEpFumHrSj_Q6xWU2nd9-6" value="" style="shape=partialRectangle;collapsible=0;dropTarget=0;pointerEvents=0;fillColor=none;points=[[0,0.5],[1,0.5]];portConstraint=eastwest;top=0;left=0;right=0;bottom=0;labelBackgroundColor=none;strokeColor=#DDA15E;fontColor=#FEFAE0;" vertex="1" parent="wmS9b-h6bvYxc8GF7XZs-17">
          <mxGeometry y="186" width="278" height="30" as="geometry" />
        </mxCell>
        <mxCell id="mEpFumHrSj_Q6xWU2nd9-7" value="FK" style="shape=partialRectangle;overflow=hidden;connectable=0;fillColor=none;top=0;left=0;bottom=0;right=0;labelBackgroundColor=none;strokeColor=#DDA15E;fontColor=#FEFAE0;" vertex="1" parent="mEpFumHrSj_Q6xWU2nd9-6">
          <mxGeometry width="30" height="30" as="geometry">
            <mxRectangle width="30" height="30" as="alternateBounds" />
          </mxGeometry>
        </mxCell>
        <mxCell id="mEpFumHrSj_Q6xWU2nd9-8" value="projectsTechnologiesId: INTEGER" style="shape=partialRectangle;overflow=hidden;connectable=0;fillColor=none;top=0;left=0;bottom=0;right=0;align=left;spacingLeft=6;labelBackgroundColor=none;strokeColor=#DDA15E;fontColor=#FEFAE0;" vertex="1" parent="mEpFumHrSj_Q6xWU2nd9-6">
          <mxGeometry x="30" width="248" height="30" as="geometry">
            <mxRectangle width="248" height="30" as="alternateBounds" />
          </mxGeometry>
        </mxCell>
        <mxCell id="wmS9b-h6bvYxc8GF7XZs-27" value="projects" style="shape=table;startSize=30;container=1;collapsible=1;childLayout=tableLayout;fixedRows=1;rowLines=0;fontStyle=1;align=center;resizeLast=1;labelBackgroundColor=none;swimlaneFillColor=none;rounded=1;swimlaneLine=1;shadow=0;fillColor=#BC6C25;fontColor=#FEFAE0;strokeColor=#DDA15E;" parent="1" vertex="1">
          <mxGeometry x="79" y="306" width="278" height="280" as="geometry">
            <mxRectangle x="273" y="180" width="76" height="30" as="alternateBounds" />
          </mxGeometry>
        </mxCell>
        <mxCell id="wmS9b-h6bvYxc8GF7XZs-28" value="" style="shape=partialRectangle;collapsible=0;dropTarget=0;pointerEvents=0;fillColor=none;points=[[0,0.5],[1,0.5]];portConstraint=eastwest;top=0;left=0;right=0;bottom=1;labelBackgroundColor=none;strokeColor=#DDA15E;fontColor=#FEFAE0;" parent="wmS9b-h6bvYxc8GF7XZs-27" vertex="1">
          <mxGeometry y="30" width="278" height="30" as="geometry" />
        </mxCell>
        <mxCell id="wmS9b-h6bvYxc8GF7XZs-29" value="PK" style="shape=partialRectangle;overflow=hidden;connectable=0;fillColor=none;top=0;left=0;bottom=0;right=0;fontStyle=1;labelBackgroundColor=none;strokeColor=#DDA15E;fontColor=#FEFAE0;" parent="wmS9b-h6bvYxc8GF7XZs-28" vertex="1">
          <mxGeometry width="30" height="30" as="geometry">
            <mxRectangle width="30" height="30" as="alternateBounds" />
          </mxGeometry>
        </mxCell>
        <mxCell id="wmS9b-h6bvYxc8GF7XZs-30" value="id:  INTEGER SERIAL" style="shape=partialRectangle;overflow=hidden;connectable=0;fillColor=none;top=0;left=0;bottom=0;right=0;align=left;spacingLeft=6;fontStyle=5;labelBackgroundColor=none;strokeColor=#DDA15E;fontColor=#FEFAE0;" parent="wmS9b-h6bvYxc8GF7XZs-28" vertex="1">
          <mxGeometry x="30" width="248" height="30" as="geometry">
            <mxRectangle width="248" height="30" as="alternateBounds" />
          </mxGeometry>
        </mxCell>
        <mxCell id="wmS9b-h6bvYxc8GF7XZs-31" value="" style="shape=partialRectangle;collapsible=0;dropTarget=0;pointerEvents=0;fillColor=none;points=[[0,0.5],[1,0.5]];portConstraint=eastwest;top=0;left=0;right=0;bottom=0;labelBackgroundColor=none;strokeColor=#DDA15E;fontColor=#FEFAE0;" parent="wmS9b-h6bvYxc8GF7XZs-27" vertex="1">
          <mxGeometry y="60" width="278" height="30" as="geometry" />
        </mxCell>
        <mxCell id="wmS9b-h6bvYxc8GF7XZs-32" value="" style="shape=partialRectangle;overflow=hidden;connectable=0;fillColor=none;top=0;left=0;bottom=0;right=0;labelBackgroundColor=none;strokeColor=#DDA15E;fontColor=#FEFAE0;" parent="wmS9b-h6bvYxc8GF7XZs-31" vertex="1">
          <mxGeometry width="30" height="30" as="geometry">
            <mxRectangle width="30" height="30" as="alternateBounds" />
          </mxGeometry>
        </mxCell>
        <mxCell id="wmS9b-h6bvYxc8GF7XZs-33" value="name:               VARCHAR(50)  NOT NULL" style="shape=partialRectangle;overflow=hidden;connectable=0;fillColor=none;top=0;left=0;bottom=0;right=0;align=left;spacingLeft=6;labelBackgroundColor=none;strokeColor=#DDA15E;fontColor=#FEFAE0;" parent="wmS9b-h6bvYxc8GF7XZs-31" vertex="1">
          <mxGeometry x="30" width="248" height="30" as="geometry">
            <mxRectangle width="248" height="30" as="alternateBounds" />
          </mxGeometry>
        </mxCell>
        <mxCell id="wmS9b-h6bvYxc8GF7XZs-34" value="" style="shape=partialRectangle;collapsible=0;dropTarget=0;pointerEvents=0;fillColor=none;points=[[0,0.5],[1,0.5]];portConstraint=eastwest;top=0;left=0;right=0;bottom=0;labelBackgroundColor=none;strokeColor=#DDA15E;fontColor=#FEFAE0;" parent="wmS9b-h6bvYxc8GF7XZs-27" vertex="1">
          <mxGeometry y="90" width="278" height="30" as="geometry" />
        </mxCell>
        <mxCell id="wmS9b-h6bvYxc8GF7XZs-35" value="" style="shape=partialRectangle;overflow=hidden;connectable=0;fillColor=none;top=0;left=0;bottom=0;right=0;labelBackgroundColor=none;strokeColor=#DDA15E;fontColor=#FEFAE0;" parent="wmS9b-h6bvYxc8GF7XZs-34" vertex="1">
          <mxGeometry width="30" height="30" as="geometry">
            <mxRectangle width="30" height="30" as="alternateBounds" />
          </mxGeometry>
        </mxCell>
        <mxCell id="wmS9b-h6bvYxc8GF7XZs-36" value="description:       TEXT                NOT NULL" style="shape=partialRectangle;overflow=hidden;connectable=0;fillColor=none;top=0;left=0;bottom=0;right=0;align=left;spacingLeft=6;labelBackgroundColor=none;strokeColor=#DDA15E;fontColor=#FEFAE0;" parent="wmS9b-h6bvYxc8GF7XZs-34" vertex="1">
          <mxGeometry x="30" width="248" height="30" as="geometry">
            <mxRectangle width="248" height="30" as="alternateBounds" />
          </mxGeometry>
        </mxCell>
        <mxCell id="wmS9b-h6bvYxc8GF7XZs-47" value="" style="shape=partialRectangle;collapsible=0;dropTarget=0;pointerEvents=0;fillColor=none;points=[[0,0.5],[1,0.5]];portConstraint=eastwest;top=0;left=0;right=0;bottom=0;labelBackgroundColor=none;strokeColor=#DDA15E;fontColor=#FEFAE0;" parent="wmS9b-h6bvYxc8GF7XZs-27" vertex="1">
          <mxGeometry y="120" width="278" height="30" as="geometry" />
        </mxCell>
        <mxCell id="wmS9b-h6bvYxc8GF7XZs-48" value="" style="shape=partialRectangle;overflow=hidden;connectable=0;fillColor=none;top=0;left=0;bottom=0;right=0;labelBackgroundColor=none;strokeColor=#DDA15E;fontColor=#FEFAE0;" parent="wmS9b-h6bvYxc8GF7XZs-47" vertex="1">
          <mxGeometry width="30" height="30" as="geometry">
            <mxRectangle width="30" height="30" as="alternateBounds" />
          </mxGeometry>
        </mxCell>
        <mxCell id="wmS9b-h6bvYxc8GF7XZs-49" value="estimatedTime: VARCHAR(20)  NOT NULL" style="shape=partialRectangle;overflow=hidden;connectable=0;fillColor=none;top=0;left=0;bottom=0;right=0;align=left;spacingLeft=6;labelBackgroundColor=none;strokeColor=#DDA15E;fontColor=#FEFAE0;" parent="wmS9b-h6bvYxc8GF7XZs-47" vertex="1">
          <mxGeometry x="30" width="248" height="30" as="geometry">
            <mxRectangle width="248" height="30" as="alternateBounds" />
          </mxGeometry>
        </mxCell>
        <mxCell id="wmS9b-h6bvYxc8GF7XZs-50" value="" style="shape=partialRectangle;collapsible=0;dropTarget=0;pointerEvents=0;fillColor=none;points=[[0,0.5],[1,0.5]];portConstraint=eastwest;top=0;left=0;right=0;bottom=0;labelBackgroundColor=none;strokeColor=#DDA15E;fontColor=#FEFAE0;" parent="wmS9b-h6bvYxc8GF7XZs-27" vertex="1">
          <mxGeometry y="150" width="278" height="30" as="geometry" />
        </mxCell>
        <mxCell id="wmS9b-h6bvYxc8GF7XZs-51" value="" style="shape=partialRectangle;overflow=hidden;connectable=0;fillColor=none;top=0;left=0;bottom=0;right=0;labelBackgroundColor=none;strokeColor=#DDA15E;fontColor=#FEFAE0;" parent="wmS9b-h6bvYxc8GF7XZs-50" vertex="1">
          <mxGeometry width="30" height="30" as="geometry">
            <mxRectangle width="30" height="30" as="alternateBounds" />
          </mxGeometry>
        </mxCell>
        <mxCell id="wmS9b-h6bvYxc8GF7XZs-52" value="repository:        VARCHAR(120) NOT NULL" style="shape=partialRectangle;overflow=hidden;connectable=0;fillColor=none;top=0;left=0;bottom=0;right=0;align=left;spacingLeft=6;labelBackgroundColor=none;strokeColor=#DDA15E;fontColor=#FEFAE0;" parent="wmS9b-h6bvYxc8GF7XZs-50" vertex="1">
          <mxGeometry x="30" width="248" height="30" as="geometry">
            <mxRectangle width="248" height="30" as="alternateBounds" />
          </mxGeometry>
        </mxCell>
        <mxCell id="wmS9b-h6bvYxc8GF7XZs-53" value="" style="shape=partialRectangle;collapsible=0;dropTarget=0;pointerEvents=0;fillColor=none;points=[[0,0.5],[1,0.5]];portConstraint=eastwest;top=0;left=0;right=0;bottom=0;labelBackgroundColor=none;strokeColor=#DDA15E;fontColor=#FEFAE0;" parent="wmS9b-h6bvYxc8GF7XZs-27" vertex="1">
          <mxGeometry y="180" width="278" height="30" as="geometry" />
        </mxCell>
        <mxCell id="wmS9b-h6bvYxc8GF7XZs-54" value="" style="shape=partialRectangle;overflow=hidden;connectable=0;fillColor=none;top=0;left=0;bottom=0;right=0;labelBackgroundColor=none;strokeColor=#DDA15E;fontColor=#FEFAE0;" parent="wmS9b-h6bvYxc8GF7XZs-53" vertex="1">
          <mxGeometry width="30" height="30" as="geometry">
            <mxRectangle width="30" height="30" as="alternateBounds" />
          </mxGeometry>
        </mxCell>
        <mxCell id="wmS9b-h6bvYxc8GF7XZs-55" value="startDate:         DATE                 NOT NULL" style="shape=partialRectangle;overflow=hidden;connectable=0;fillColor=none;top=0;left=0;bottom=0;right=0;align=left;spacingLeft=6;labelBackgroundColor=none;strokeColor=#DDA15E;fontColor=#FEFAE0;" parent="wmS9b-h6bvYxc8GF7XZs-53" vertex="1">
          <mxGeometry x="30" width="248" height="30" as="geometry">
            <mxRectangle width="248" height="30" as="alternateBounds" />
          </mxGeometry>
        </mxCell>
        <mxCell id="wmS9b-h6bvYxc8GF7XZs-56" value="" style="shape=partialRectangle;collapsible=0;dropTarget=0;pointerEvents=0;fillColor=none;points=[[0,0.5],[1,0.5]];portConstraint=eastwest;top=0;left=0;right=0;bottom=0;labelBackgroundColor=none;strokeColor=#DDA15E;fontColor=#FEFAE0;" parent="wmS9b-h6bvYxc8GF7XZs-27" vertex="1">
          <mxGeometry y="210" width="278" height="30" as="geometry" />
        </mxCell>
        <mxCell id="wmS9b-h6bvYxc8GF7XZs-57" value="" style="shape=partialRectangle;overflow=hidden;connectable=0;fillColor=none;top=0;left=0;bottom=0;right=0;labelBackgroundColor=none;strokeColor=#DDA15E;fontColor=#FEFAE0;" parent="wmS9b-h6bvYxc8GF7XZs-56" vertex="1">
          <mxGeometry width="30" height="30" as="geometry">
            <mxRectangle width="30" height="30" as="alternateBounds" />
          </mxGeometry>
        </mxCell>
        <mxCell id="wmS9b-h6bvYxc8GF7XZs-58" value="endDate:           DATE " style="shape=partialRectangle;overflow=hidden;connectable=0;fillColor=none;top=0;left=0;bottom=0;right=0;align=left;spacingLeft=6;labelBackgroundColor=none;strokeColor=#DDA15E;fontColor=#FEFAE0;" parent="wmS9b-h6bvYxc8GF7XZs-56" vertex="1">
          <mxGeometry x="30" width="248" height="30" as="geometry">
            <mxRectangle width="248" height="30" as="alternateBounds" />
          </mxGeometry>
        </mxCell>
        <mxCell id="mEpFumHrSj_Q6xWU2nd9-23" value="" style="shape=partialRectangle;collapsible=0;dropTarget=0;pointerEvents=0;fillColor=none;points=[[0,0.5],[1,0.5]];portConstraint=eastwest;top=0;left=0;right=0;bottom=0;labelBackgroundColor=none;strokeColor=#DDA15E;fontColor=#FEFAE0;" vertex="1" parent="wmS9b-h6bvYxc8GF7XZs-27">
          <mxGeometry y="240" width="278" height="30" as="geometry" />
        </mxCell>
        <mxCell id="mEpFumHrSj_Q6xWU2nd9-24" value="FK" style="shape=partialRectangle;overflow=hidden;connectable=0;fillColor=none;top=0;left=0;bottom=0;right=0;labelBackgroundColor=none;strokeColor=#DDA15E;fontColor=#FEFAE0;" vertex="1" parent="mEpFumHrSj_Q6xWU2nd9-23">
          <mxGeometry width="30" height="30" as="geometry">
            <mxRectangle width="30" height="30" as="alternateBounds" />
          </mxGeometry>
        </mxCell>
        <mxCell id="mEpFumHrSj_Q6xWU2nd9-25" value="developerId: INTEGER NOT NULL" style="shape=partialRectangle;overflow=hidden;connectable=0;fillColor=none;top=0;left=0;bottom=0;right=0;align=left;spacingLeft=6;labelBackgroundColor=none;strokeColor=#DDA15E;fontColor=#FEFAE0;" vertex="1" parent="mEpFumHrSj_Q6xWU2nd9-23">
          <mxGeometry x="30" width="248" height="30" as="geometry">
            <mxRectangle width="248" height="30" as="alternateBounds" />
          </mxGeometry>
        </mxCell>
        <mxCell id="wmS9b-h6bvYxc8GF7XZs-59" value="technologies" style="shape=table;startSize=30;container=1;collapsible=1;childLayout=tableLayout;fixedRows=1;rowLines=0;fontStyle=1;align=center;resizeLast=1;labelBackgroundColor=none;swimlaneFillColor=none;rounded=1;swimlaneLine=1;shadow=0;fillColor=#BC6C25;fontColor=#FEFAE0;strokeColor=#DDA15E;" parent="1" vertex="1">
          <mxGeometry x="536.25" y="486.25" width="240.20833333333337" height="99.75" as="geometry">
            <mxRectangle x="273" y="180" width="76" height="30" as="alternateBounds" />
          </mxGeometry>
        </mxCell>
        <mxCell id="wmS9b-h6bvYxc8GF7XZs-60" value="" style="shape=partialRectangle;collapsible=0;dropTarget=0;pointerEvents=0;fillColor=none;points=[[0,0.5],[1,0.5]];portConstraint=eastwest;top=0;left=0;right=0;bottom=1;labelBackgroundColor=none;strokeColor=#DDA15E;fontColor=#FEFAE0;" parent="wmS9b-h6bvYxc8GF7XZs-59" vertex="1">
          <mxGeometry y="30" width="240.20833333333337" height="30" as="geometry" />
        </mxCell>
        <mxCell id="wmS9b-h6bvYxc8GF7XZs-61" value="PK" style="shape=partialRectangle;overflow=hidden;connectable=0;fillColor=none;top=0;left=0;bottom=0;right=0;fontStyle=1;labelBackgroundColor=none;strokeColor=#DDA15E;fontColor=#FEFAE0;" parent="wmS9b-h6bvYxc8GF7XZs-60" vertex="1">
          <mxGeometry width="30" height="30" as="geometry">
            <mxRectangle width="30" height="30" as="alternateBounds" />
          </mxGeometry>
        </mxCell>
        <mxCell id="wmS9b-h6bvYxc8GF7XZs-62" value="id:  INTEGER SERIAL" style="shape=partialRectangle;overflow=hidden;connectable=0;fillColor=none;top=0;left=0;bottom=0;right=0;align=left;spacingLeft=6;fontStyle=5;labelBackgroundColor=none;strokeColor=#DDA15E;fontColor=#FEFAE0;" parent="wmS9b-h6bvYxc8GF7XZs-60" vertex="1">
          <mxGeometry x="30" width="210.20833333333337" height="30" as="geometry">
            <mxRectangle width="210.20833333333337" height="30" as="alternateBounds" />
          </mxGeometry>
        </mxCell>
        <mxCell id="wmS9b-h6bvYxc8GF7XZs-63" value="" style="shape=partialRectangle;collapsible=0;dropTarget=0;pointerEvents=0;fillColor=none;points=[[0,0.5],[1,0.5]];portConstraint=eastwest;top=0;left=0;right=0;bottom=0;labelBackgroundColor=none;strokeColor=#DDA15E;fontColor=#FEFAE0;" parent="wmS9b-h6bvYxc8GF7XZs-59" vertex="1">
          <mxGeometry y="60" width="240.20833333333337" height="30" as="geometry" />
        </mxCell>
        <mxCell id="wmS9b-h6bvYxc8GF7XZs-64" value="" style="shape=partialRectangle;overflow=hidden;connectable=0;fillColor=none;top=0;left=0;bottom=0;right=0;labelBackgroundColor=none;strokeColor=#DDA15E;fontColor=#FEFAE0;" parent="wmS9b-h6bvYxc8GF7XZs-63" vertex="1">
          <mxGeometry width="30" height="30" as="geometry">
            <mxRectangle width="30" height="30" as="alternateBounds" />
          </mxGeometry>
        </mxCell>
        <mxCell id="wmS9b-h6bvYxc8GF7XZs-65" value="name: VARCHAR(30)  NOT NULL" style="shape=partialRectangle;overflow=hidden;connectable=0;fillColor=none;top=0;left=0;bottom=0;right=0;align=left;spacingLeft=6;labelBackgroundColor=none;strokeColor=#DDA15E;fontColor=#FEFAE0;" parent="wmS9b-h6bvYxc8GF7XZs-63" vertex="1">
          <mxGeometry x="30" width="210.20833333333337" height="30" as="geometry">
            <mxRectangle width="210.20833333333337" height="30" as="alternateBounds" />
          </mxGeometry>
        </mxCell>
        <mxCell id="wmS9b-h6bvYxc8GF7XZs-81" value="projects_technologies" style="shape=table;startSize=30;container=1;collapsible=1;childLayout=tableLayout;fixedRows=1;rowLines=0;fontStyle=1;align=center;resizeLast=1;labelBackgroundColor=none;swimlaneFillColor=none;rounded=1;swimlaneLine=1;shadow=0;fillColor=#BC6C25;fontColor=#FEFAE0;strokeColor=#DDA15E;" parent="1" vertex="1">
          <mxGeometry x="536.25" y="255" width="241.75" height="161.96" as="geometry">
            <mxRectangle x="273" y="180" width="76" height="30" as="alternateBounds" />
          </mxGeometry>
        </mxCell>
        <mxCell id="wmS9b-h6bvYxc8GF7XZs-82" value="" style="shape=partialRectangle;collapsible=0;dropTarget=0;pointerEvents=0;fillColor=none;points=[[0,0.5],[1,0.5]];portConstraint=eastwest;top=0;left=0;right=0;bottom=1;labelBackgroundColor=none;strokeColor=#DDA15E;fontColor=#FEFAE0;" parent="wmS9b-h6bvYxc8GF7XZs-81" vertex="1">
          <mxGeometry y="30" width="241.75" height="32" as="geometry" />
        </mxCell>
        <mxCell id="wmS9b-h6bvYxc8GF7XZs-83" value="PK" style="shape=partialRectangle;overflow=hidden;connectable=0;fillColor=none;top=0;left=0;bottom=0;right=0;fontStyle=1;labelBackgroundColor=none;strokeColor=#DDA15E;fontColor=#FEFAE0;" parent="wmS9b-h6bvYxc8GF7XZs-82" vertex="1">
          <mxGeometry width="30" height="32" as="geometry">
            <mxRectangle width="30" height="32" as="alternateBounds" />
          </mxGeometry>
        </mxCell>
        <mxCell id="wmS9b-h6bvYxc8GF7XZs-84" value="id:  INTEGER SERIAL" style="shape=partialRectangle;overflow=hidden;connectable=0;fillColor=none;top=0;left=0;bottom=0;right=0;align=left;spacingLeft=6;fontStyle=5;labelBackgroundColor=none;strokeColor=#DDA15E;fontColor=#FEFAE0;" parent="wmS9b-h6bvYxc8GF7XZs-82" vertex="1">
          <mxGeometry x="30" width="211.75" height="32" as="geometry">
            <mxRectangle width="211.75" height="32" as="alternateBounds" />
          </mxGeometry>
        </mxCell>
        <mxCell id="wmS9b-h6bvYxc8GF7XZs-85" value="" style="shape=partialRectangle;collapsible=0;dropTarget=0;pointerEvents=0;fillColor=none;points=[[0,0.5],[1,0.5]];portConstraint=eastwest;top=0;left=0;right=0;bottom=0;labelBackgroundColor=none;strokeColor=#DDA15E;fontColor=#FEFAE0;" parent="wmS9b-h6bvYxc8GF7XZs-81" vertex="1">
          <mxGeometry y="62" width="241.75" height="30" as="geometry" />
        </mxCell>
        <mxCell id="wmS9b-h6bvYxc8GF7XZs-86" value="" style="shape=partialRectangle;overflow=hidden;connectable=0;fillColor=none;top=0;left=0;bottom=0;right=0;labelBackgroundColor=none;strokeColor=#DDA15E;fontColor=#FEFAE0;" parent="wmS9b-h6bvYxc8GF7XZs-85" vertex="1">
          <mxGeometry width="30" height="30" as="geometry">
            <mxRectangle width="30" height="30" as="alternateBounds" />
          </mxGeometry>
        </mxCell>
        <mxCell id="wmS9b-h6bvYxc8GF7XZs-87" value="addedIn: DATE NOT NULL" style="shape=partialRectangle;overflow=hidden;connectable=0;fillColor=none;top=0;left=0;bottom=0;right=0;align=left;spacingLeft=6;labelBackgroundColor=none;strokeColor=#DDA15E;fontColor=#FEFAE0;" parent="wmS9b-h6bvYxc8GF7XZs-85" vertex="1">
          <mxGeometry x="30" width="211.75" height="30" as="geometry">
            <mxRectangle width="211.75" height="30" as="alternateBounds" />
          </mxGeometry>
        </mxCell>
        <mxCell id="mEpFumHrSj_Q6xWU2nd9-12" value="" style="shape=partialRectangle;collapsible=0;dropTarget=0;pointerEvents=0;fillColor=none;points=[[0,0.5],[1,0.5]];portConstraint=eastwest;top=0;left=0;right=0;bottom=0;labelBackgroundColor=none;strokeColor=#DDA15E;fontColor=#FEFAE0;" vertex="1" parent="wmS9b-h6bvYxc8GF7XZs-81">
          <mxGeometry y="92" width="241.75" height="30" as="geometry" />
        </mxCell>
        <mxCell id="mEpFumHrSj_Q6xWU2nd9-13" value="FK" style="shape=partialRectangle;overflow=hidden;connectable=0;fillColor=none;top=0;left=0;bottom=0;right=0;labelBackgroundColor=none;strokeColor=#DDA15E;fontColor=#FEFAE0;" vertex="1" parent="mEpFumHrSj_Q6xWU2nd9-12">
          <mxGeometry width="30" height="30" as="geometry">
            <mxRectangle width="30" height="30" as="alternateBounds" />
          </mxGeometry>
        </mxCell>
        <mxCell id="mEpFumHrSj_Q6xWU2nd9-14" value="projectsId: INTEGER NOT NULL" style="shape=partialRectangle;overflow=hidden;connectable=0;fillColor=none;top=0;left=0;bottom=0;right=0;align=left;spacingLeft=6;labelBackgroundColor=none;strokeColor=#DDA15E;fontColor=#FEFAE0;" vertex="1" parent="mEpFumHrSj_Q6xWU2nd9-12">
          <mxGeometry x="30" width="211.75" height="30" as="geometry">
            <mxRectangle width="211.75" height="30" as="alternateBounds" />
          </mxGeometry>
        </mxCell>
        <mxCell id="mEpFumHrSj_Q6xWU2nd9-15" value="" style="shape=partialRectangle;collapsible=0;dropTarget=0;pointerEvents=0;fillColor=none;points=[[0,0.5],[1,0.5]];portConstraint=eastwest;top=0;left=0;right=0;bottom=0;labelBackgroundColor=none;strokeColor=#DDA15E;fontColor=#FEFAE0;" vertex="1" parent="wmS9b-h6bvYxc8GF7XZs-81">
          <mxGeometry y="122" width="241.75" height="30" as="geometry" />
        </mxCell>
        <mxCell id="mEpFumHrSj_Q6xWU2nd9-16" value="FK" style="shape=partialRectangle;overflow=hidden;connectable=0;fillColor=none;top=0;left=0;bottom=0;right=0;labelBackgroundColor=none;strokeColor=#DDA15E;fontColor=#FEFAE0;" vertex="1" parent="mEpFumHrSj_Q6xWU2nd9-15">
          <mxGeometry width="30" height="30" as="geometry">
            <mxRectangle width="30" height="30" as="alternateBounds" />
          </mxGeometry>
        </mxCell>
        <mxCell id="mEpFumHrSj_Q6xWU2nd9-17" value="technologiesId: INTEGER NOT NULL" style="shape=partialRectangle;overflow=hidden;connectable=0;fillColor=none;top=0;left=0;bottom=0;right=0;align=left;spacingLeft=6;labelBackgroundColor=none;strokeColor=#DDA15E;fontColor=#FEFAE0;" vertex="1" parent="mEpFumHrSj_Q6xWU2nd9-15">
          <mxGeometry x="30" width="211.75" height="30" as="geometry">
            <mxRectangle width="211.75" height="30" as="alternateBounds" />
          </mxGeometry>
        </mxCell>
        <mxCell id="mEpFumHrSj_Q6xWU2nd9-1" value="" style="edgeStyle=entityRelationEdgeStyle;fontSize=12;html=1;endArrow=ERmandOne;startArrow=ERmandOne;rounded=0;shadow=0;" edge="1" parent="1" source="mEpFumHrSj_Q6xWU2nd9-3" target="wmS9b-h6bvYxc8GF7XZs-2">
          <mxGeometry width="100" height="100" relative="1" as="geometry">
            <mxPoint x="369" y="246" as="sourcePoint" />
            <mxPoint x="474" y="363" as="targetPoint" />
          </mxGeometry>
        </mxCell>
        <mxCell id="mEpFumHrSj_Q6xWU2nd9-11" value="" style="edgeStyle=entityRelationEdgeStyle;fontSize=12;html=1;endArrow=ERoneToMany;rounded=0;shadow=0;sketch=0;" edge="1" parent="1" source="wmS9b-h6bvYxc8GF7XZs-28" target="mEpFumHrSj_Q6xWU2nd9-12">
          <mxGeometry width="100" height="100" relative="1" as="geometry">
            <mxPoint x="394" y="593" as="sourcePoint" />
            <mxPoint x="494" y="493" as="targetPoint" />
          </mxGeometry>
        </mxCell>
        <mxCell id="mEpFumHrSj_Q6xWU2nd9-26" style="edgeStyle=orthogonalEdgeStyle;rounded=0;sketch=0;orthogonalLoop=1;jettySize=auto;html=1;exitX=0;exitY=0.5;exitDx=0;exitDy=0;entryX=0;entryY=0.5;entryDx=0;entryDy=0;shadow=0;endArrow=ERoneToMany;endFill=0;" edge="1" parent="1" source="wmS9b-h6bvYxc8GF7XZs-18" target="mEpFumHrSj_Q6xWU2nd9-23">
          <mxGeometry relative="1" as="geometry">
            <Array as="points">
              <mxPoint x="59" y="98" />
              <mxPoint x="59" y="561" />
            </Array>
          </mxGeometry>
        </mxCell>
        <mxCell id="mEpFumHrSj_Q6xWU2nd9-28" style="edgeStyle=orthogonalEdgeStyle;rounded=0;sketch=0;orthogonalLoop=1;jettySize=auto;html=1;exitX=0;exitY=0.5;exitDx=0;exitDy=0;shadow=0;endArrow=ERoneToMany;endFill=0;" edge="1" parent="1" source="wmS9b-h6bvYxc8GF7XZs-60" target="mEpFumHrSj_Q6xWU2nd9-15">
          <mxGeometry relative="1" as="geometry" />
        </mxCell>
      </root>
    </mxGraphModel>
  </diagram>
</mxfile>
